<svg width="138" height="47" viewBox="0 0 138 47" fill="none" xmlns="http://www.w3.org/2000/svg">
<g filter="url(#filter0_d_1_3)">
<path fill-rule="evenodd" clip-rule="evenodd" d="M135 6C135 3.23858 132.761 1 130 1H8C5.23858 1 3 3.23858 3 6V29C3 31.7614 5.23858 34 8 34H59.878C61.2341 34 62.5321 34.5509 63.4743 35.5263L68.3878 40.6132C69.1131 41.3641 70.322 41.3458 71.0242 40.5734L75.5121 35.6366C76.4598 34.5943 77.8031 34 79.2119 34H130C132.761 34 135 31.7614 135 29V6Z" fill="white" fill-opacity="0.9" shape-rendering="crispEdges"/>
</g>
<path d="M18.7245 23H20.765V18.4822L24.7826 11.5428H22.5436L19.8122 16.4575H19.6773L16.9459 11.5428H14.7069L18.7245 18.4822V23ZM28.8161 23.1747C29.6842 23.1747 30.4279 22.9947 31.0472 22.6348C31.6718 22.2695 32.1508 21.7508 32.4843 21.0785C32.8231 20.4063 32.9924 19.6017 32.9924 18.6648V18.6489C32.9924 17.7173 32.8231 16.9154 32.4843 16.2432C32.1455 15.5709 31.6638 15.0548 31.0392 14.6949C30.4199 14.3349 29.6789 14.155 28.8161 14.155C27.9533 14.155 27.2096 14.3349 26.585 14.6949C25.9656 15.0548 25.4866 15.5736 25.1478 16.2511C24.8091 16.9233 24.6397 17.7226 24.6397 18.6489V18.6648C24.6397 19.6017 24.8064 20.4063 25.1399 21.0785C25.4787 21.7508 25.9604 22.2695 26.585 22.6348C27.2096 22.9947 27.9533 23.1747 28.8161 23.1747ZM28.8161 21.5708C28.3556 21.5708 27.9639 21.457 27.641 21.2294C27.3234 21.0018 27.0799 20.671 26.9105 20.2369C26.7411 19.8029 26.6564 19.2815 26.6564 18.6728V18.6569C26.6564 18.0429 26.7411 17.5215 26.9105 17.0927C27.0799 16.6587 27.326 16.3279 27.6489 16.1002C27.9718 15.8673 28.3608 15.7509 28.8161 15.7509C29.2713 15.7509 29.6577 15.8673 29.9753 16.1002C30.2982 16.3279 30.5443 16.6587 30.7137 17.0927C30.8831 17.5215 30.9678 18.0429 30.9678 18.6569V18.6728C30.9678 19.2815 30.8831 19.8029 30.7137 20.2369C30.5443 20.6657 30.2982 20.9965 29.9753 21.2294C29.6577 21.457 29.2713 21.5708 28.8161 21.5708ZM37.8516 23.1747C38.4815 23.1747 39.0109 23.0423 39.4396 22.7777C39.8737 22.513 40.1913 22.1478 40.3924 21.682H40.5274V23H42.5044V14.3217H40.5274V19.3794C40.5274 19.8135 40.4533 20.1893 40.3051 20.5069C40.1569 20.8245 39.9345 21.0706 39.6381 21.2453C39.347 21.42 38.9897 21.5073 38.5662 21.5073C37.9681 21.5073 37.5367 21.3379 37.272 20.9992C37.0074 20.6604 36.875 20.1549 36.875 19.4826V14.3217H34.898V19.9352C34.898 20.6233 35.0092 21.2109 35.2315 21.6979C35.4538 22.1795 35.7846 22.5474 36.224 22.8015C36.6633 23.0503 37.2059 23.1747 37.8516 23.1747ZM44.9181 23H46.8952V17.9582C46.8952 17.5453 46.9852 17.188 47.1651 16.8863C47.3451 16.5793 47.5992 16.3437 47.9274 16.1796C48.2555 16.0156 48.6393 15.9335 49.0786 15.9335C49.2533 15.9335 49.42 15.9441 49.5788 15.9653C49.7429 15.9811 49.9044 16.0076 50.0632 16.0447V14.2741C49.9679 14.2476 49.8462 14.2264 49.6979 14.2106C49.555 14.1894 49.4095 14.1788 49.2612 14.1788C48.6896 14.1788 48.2105 14.3085 47.8241 14.5678C47.443 14.8272 47.1784 15.1898 47.0301 15.6556H46.8952V14.3217H44.9181V23ZM58.3683 23.1429C58.7547 23.1429 59.1093 23.09 59.4322 22.9841C59.7551 22.8783 60.041 22.7248 60.2897 22.5236C60.5438 22.3225 60.7503 22.0843 60.9091 21.809H61.044V23H62.9972V17.0689C62.9972 16.4602 62.8623 15.9388 62.5923 15.5048C62.3223 15.0654 61.928 14.7319 61.4093 14.5043C60.8905 14.2714 60.2553 14.155 59.5037 14.155C58.8209 14.155 58.2174 14.2555 57.6934 14.4567C57.1694 14.6578 56.7486 14.941 56.431 15.3063C56.1134 15.6715 55.9228 16.0976 55.8593 16.5846L55.8513 16.656H57.7172L57.7252 16.6243C57.8257 16.3384 58.0189 16.1188 58.3048 15.9653C58.5906 15.8065 58.9585 15.7271 59.4084 15.7271C59.9483 15.7271 60.3559 15.8435 60.6312 16.0764C60.9064 16.304 61.044 16.6349 61.044 17.0689V19.8161C61.044 20.1602 60.954 20.4698 60.7741 20.7451C60.5941 21.015 60.348 21.2294 60.0357 21.3882C59.7234 21.547 59.3687 21.6264 58.9717 21.6264C58.5324 21.6264 58.1698 21.5232 57.884 21.3167C57.6034 21.1103 57.4631 20.8218 57.4631 20.4513V20.4354C57.4631 20.0755 57.5955 19.7949 57.8601 19.5938C58.1248 19.3926 58.535 19.2762 59.0908 19.2444L62.0206 19.0539V17.7517L58.8129 17.9502C57.7543 18.0085 56.9391 18.2599 56.3674 18.7045C55.8011 19.1492 55.5179 19.7579 55.5179 20.5307V20.5466C55.5179 21.0759 55.6396 21.5364 55.8831 21.9281C56.1319 22.3145 56.4707 22.6136 56.8994 22.8253C57.3335 23.0371 57.8231 23.1429 58.3683 23.1429ZM65.3713 25.8822H67.3483V21.6185H67.4833C67.6368 21.9308 67.8432 22.2007 68.1026 22.4283C68.362 22.6559 68.6637 22.8333 69.0077 22.9603C69.3518 23.082 69.7223 23.1429 70.1193 23.1429C70.8498 23.1429 71.4797 22.9629 72.009 22.603C72.5436 22.2378 72.9565 21.7217 73.2476 21.0547C73.5388 20.3878 73.6843 19.5938 73.6843 18.6728V18.6569C73.6843 17.7412 73.5361 16.9498 73.2397 16.2829C72.9486 15.6106 72.5357 15.0919 72.0011 14.7266C71.4717 14.3614 70.8445 14.1788 70.1193 14.1788C69.7117 14.1788 69.3386 14.2397 68.9998 14.3614C68.661 14.4832 68.362 14.6552 68.1026 14.8775C67.8485 15.0998 67.6421 15.3671 67.4833 15.6794H67.3483V14.3217H65.3713V25.8822ZM69.5 21.4755C69.0554 21.4755 68.669 21.3644 68.3408 21.1421C68.0126 20.9145 67.7585 20.5916 67.5785 20.1734C67.4039 19.7499 67.3165 19.2471 67.3165 18.6648V18.6489C67.3165 18.0667 67.4039 17.5665 67.5785 17.1483C67.7585 16.7301 68.0099 16.4099 68.3328 16.1876C68.661 15.96 69.0501 15.8462 69.5 15.8462C69.9499 15.8462 70.3363 15.96 70.6592 16.1876C70.9821 16.4099 71.2309 16.7301 71.4056 17.1483C71.5802 17.5665 71.6676 18.0693 71.6676 18.6569V18.6728C71.6676 19.2497 71.5802 19.7499 71.4056 20.1734C71.2309 20.5916 70.9821 20.9145 70.6592 21.1421C70.3363 21.3644 69.9499 21.4755 69.5 21.4755ZM75.6772 25.8822H77.6543V21.6185H77.7892C77.9427 21.9308 78.1492 22.2007 78.4085 22.4283C78.6679 22.6559 78.9696 22.8333 79.3137 22.9603C79.6578 23.082 80.0283 23.1429 80.4253 23.1429C81.1557 23.1429 81.7856 22.9629 82.315 22.603C82.8496 22.2378 83.2625 21.7217 83.5536 21.0547C83.8447 20.3878 83.9903 19.5938 83.9903 18.6728V18.6569C83.9903 17.7412 83.8421 16.9498 83.5456 16.2829C83.2545 15.6106 82.8416 15.0919 82.307 14.7266C81.7777 14.3614 81.1504 14.1788 80.4253 14.1788C80.0177 14.1788 79.6445 14.2397 79.3057 14.3614C78.967 14.4832 78.6679 14.6552 78.4085 14.8775C78.1545 15.0998 77.948 15.3671 77.7892 15.6794H77.6543V14.3217H75.6772V25.8822ZM79.806 21.4755C79.3613 21.4755 78.9749 21.3644 78.6467 21.1421C78.3186 20.9145 78.0645 20.5916 77.8845 20.1734C77.7098 19.7499 77.6225 19.2471 77.6225 18.6648V18.6489C77.6225 18.0667 77.7098 17.5665 77.8845 17.1483C78.0645 16.7301 78.3159 16.4099 78.6388 16.1876C78.967 15.96 79.356 15.8462 79.806 15.8462C80.2559 15.8462 80.6423 15.96 80.9652 16.1876C81.2881 16.4099 81.5369 16.7301 81.7115 17.1483C81.8862 17.5665 81.9735 18.0693 81.9735 18.6569V18.6728C81.9735 19.2497 81.8862 19.7499 81.7115 20.1734C81.5369 20.5916 81.2881 20.9145 80.9652 21.1421C80.6423 21.3644 80.2559 21.4755 79.806 21.4755ZM90.3978 23H92.3748V17.9423C92.3748 17.5083 92.4515 17.1324 92.605 16.8148C92.7585 16.4972 92.9782 16.2511 93.2641 16.0764C93.5499 15.9017 93.8887 15.8144 94.2804 15.8144C94.8785 15.8144 95.3178 15.9838 95.5984 16.3226C95.8842 16.6613 96.0271 17.1695 96.0271 17.847V23H98.0042V17.3865C98.0042 16.6984 97.8877 16.1135 97.6548 15.6318C97.4272 15.1501 97.0911 14.7849 96.6464 14.5361C96.2018 14.282 95.6566 14.155 95.0108 14.155C94.3862 14.155 93.8648 14.2873 93.4467 14.552C93.0285 14.8166 92.7162 15.1845 92.5098 15.6556H92.3748V10.9631H90.3978V23ZM104.054 23.1747C104.642 23.1747 105.158 23.1006 105.603 22.9524C106.047 22.7989 106.423 22.6004 106.73 22.3569C107.042 22.1081 107.289 21.8408 107.468 21.5549C107.654 21.2638 107.781 20.978 107.85 20.6974L107.865 20.626H105.992L105.968 20.6816C105.904 20.8139 105.793 20.9542 105.634 21.1024C105.476 21.2453 105.267 21.3697 105.007 21.4755C104.753 21.5761 104.449 21.6264 104.094 21.6264C103.639 21.6264 103.244 21.5258 102.911 21.3247C102.583 21.1182 102.329 20.8271 102.149 20.4513C101.969 20.0702 101.879 19.6123 101.879 19.0777V18.2837C101.879 17.7279 101.969 17.2595 102.149 16.8784C102.334 16.4919 102.583 16.2008 102.895 16.005C103.213 15.8038 103.575 15.7033 103.983 15.7033C104.39 15.7033 104.748 15.7985 105.055 15.9891C105.367 16.1796 105.611 16.4655 105.785 16.8466C105.96 17.2277 106.047 17.7067 106.047 18.2837V19.0698L106.984 17.8311H100.902V19.1571H107.953V18.506C107.953 17.6326 107.791 16.8704 107.468 16.2193C107.146 15.5683 106.685 15.0628 106.087 14.7028C105.494 14.3376 104.785 14.155 103.959 14.155C103.139 14.155 102.424 14.3429 101.815 14.7187C101.207 15.0892 100.735 15.6133 100.402 16.2908C100.074 16.9683 99.9097 17.7623 99.9097 18.6728V18.6807C99.9097 19.6017 100.076 20.3984 100.41 21.0706C100.743 21.7429 101.217 22.2616 101.831 22.6268C102.45 22.9921 103.192 23.1747 104.054 23.1747ZM109.93 23H111.907V17.9582C111.907 17.5453 111.997 17.188 112.177 16.8863C112.357 16.5793 112.611 16.3437 112.939 16.1796C113.267 16.0156 113.651 15.9335 114.09 15.9335C114.265 15.9335 114.432 15.9441 114.591 15.9653C114.755 15.9811 114.916 16.0076 115.075 16.0447V14.2741C114.98 14.2476 114.858 14.2264 114.71 14.2106C114.567 14.1894 114.421 14.1788 114.273 14.1788C113.701 14.1788 113.222 14.3085 112.836 14.5678C112.455 14.8272 112.19 15.1898 112.042 15.6556H111.907V14.3217H109.93V23ZM120.188 23.1747C120.776 23.1747 121.292 23.1006 121.736 22.9524C122.181 22.7989 122.557 22.6004 122.864 22.3569C123.176 22.1081 123.422 21.8408 123.602 21.5549C123.788 21.2638 123.915 20.978 123.983 20.6974L123.999 20.626H122.126L122.102 20.6816C122.038 20.8139 121.927 20.9542 121.768 21.1024C121.609 21.2453 121.4 21.3697 121.141 21.4755C120.887 21.5761 120.583 21.6264 120.228 21.6264C119.773 21.6264 119.378 21.5258 119.045 21.3247C118.717 21.1182 118.463 20.8271 118.283 20.4513C118.103 20.0702 118.013 19.6123 118.013 19.0777V18.2837C118.013 17.7279 118.103 17.2595 118.283 16.8784C118.468 16.4919 118.717 16.2008 119.029 16.005C119.347 15.8038 119.709 15.7033 120.117 15.7033C120.524 15.7033 120.882 15.7985 121.189 15.9891C121.501 16.1796 121.744 16.4655 121.919 16.8466C122.094 17.2277 122.181 17.7067 122.181 18.2837V19.0698L123.118 17.8311H117.036V19.1571H124.087V18.506C124.087 17.6326 123.925 16.8704 123.602 16.2193C123.279 15.5683 122.819 15.0628 122.221 14.7028C121.628 14.3376 120.919 14.155 120.093 14.155C119.272 14.155 118.558 14.3429 117.949 14.7187C117.34 15.0892 116.869 15.6133 116.536 16.2908C116.208 16.9683 116.044 17.7623 116.044 18.6728V18.6807C116.044 19.6017 116.21 20.3984 116.544 21.0706C116.877 21.7429 117.351 22.2616 117.965 22.6268C118.584 22.9921 119.325 23.1747 120.188 23.1747Z" fill="#3238F2"/>
<defs>
<filter id="filter0_d_1_3" x="0" y="0" width="138" height="46.1648" filterUnits="userSpaceOnUse" color-interpolation-filters="sRGB">
<feFlood flood-opacity="0" result="BackgroundImageFix"/>
<feColorMatrix in="SourceAlpha" type="matrix" values="0 0 0 0 0 0 0 0 0 0 0 0 0 0 0 0 0 0 127 0" result="hardAlpha"/>
<feOffset dy="2"/>
<feGaussianBlur stdDeviation="1.5"/>
<feComposite in2="hardAlpha" operator="out"/>
<feColorMatrix type="matrix" values="0 0 0 0 0 0 0 0 0 0 0 0 0 0 0 0 0 0 0.15 0"/>
<feBlend mode="normal" in2="BackgroundImageFix" result="effect1_dropShadow_1_3"/>
<feBlend mode="normal" in="SourceGraphic" in2="effect1_dropShadow_1_3" result="shape"/>
</filter>
</defs>
</svg>
